<?xml version="1.0" encoding="UTF-8"?>
<svg width="512" height="512" viewBox="0 0 512 512" fill="none" xmlns="http://www.w3.org/2000/svg">
  <rect width="512" height="512" rx="128" fill="#4A6FA5"/>
  <path d="M128 256C128 185.3 185.3 128 256 128C326.7 128 384 185.3 384 256C384 299.7 364.3 338.6 334.1 362.5L353.9 400H320V416H384V352H368L374.6 365.2C409.8 336.8 432 298.6 432 256C432 150 346 64 240 64C134 64 48 150 48 256C48 362 134 448 240 448H256V416H240C158.8 416 92.8 351.5 90.2 270.6C90.1 266.4 89.1 262.2 89.1 258C89.1 246.5 92.3 235.6 96.3 225.6L76.8 205.1C71.4 218.3 68 236.8 68 256C68 273.7 71.6 290.5 77.9 305.6C93.6 267.6 128.6 240 169.3 240H246.7C268.3 240 288 259.7 288 281.3C288 289.3 286.4 296.9 283.3 303.8L240 416H208L256 256L208 128H240L265.6 208H256C247.2 208 240 200.8 240 192C240 183.2 247.2 176 256 176H304C312.8 176 320 183.2 320 192C320 200.8 312.8 208 304 208H294.4L268.8 128H288C296.8 128 304 120.8 304 112C304 103.2 296.8 96 288 96H208C199.2 96 192 103.2 192 112C192 120.8 199.2 128 208 128H217.6L192 208H169.3C140.7 208 117.3 229.8 112.8 258C112.3 262.1 112 266.1 112 270.2C112 273.8 112.3 277.3 112.9 280.8C116.5 272.7 121.8 265.4 128.4 259.6C128.1 259.3 128 258.9 128 258.5V256Z" fill="white"/>
</svg>
